<?xml version="1.0" standalone="no"?>
<!DOCTYPE svg PUBLIC "-//W3C//DTD SVG 1.1//EN" "http://www.w3.org/Graphics/SVG/1.1/DTD/svg11.dtd" >
<svg xmlns="http://www.w3.org/2000/svg" xmlns:xlink="http://www.w3.org/1999/xlink" version="1.1">
<metadata></metadata>
<defs>
<font id="one_dayregular" horiz-adv-x="1705" >
<font-face units-per-em="2048" ascent="1536" descent="-512" />
<missing-glyph horiz-adv-x="405" />
<glyph horiz-adv-x="0" />
<glyph horiz-adv-x="682" />
<glyph horiz-adv-x="0" />
<glyph horiz-adv-x="0" />
<glyph unicode="&#xd;" horiz-adv-x="704" />
<glyph unicode=" "  horiz-adv-x="405" />
<glyph unicode="&#x09;" horiz-adv-x="405" />
<glyph unicode="&#xa0;" horiz-adv-x="405" />
<glyph unicode="!" horiz-adv-x="239" d="M41 59q0 25 16.5 41.5t42.5 16.5q24 0 41 -17t17 -41q0 -26 -17 -42.5t-41 -16.5q-26 0 -42.5 16.5t-16.5 42.5zM45 276v1201q0 26 16 42.5t41 16.5q24 0 42 -17t18 -42v-1201q0 -24 -18 -41.5t-42 -17.5q-25 0 -41 17t-16 42z" />
<glyph unicode="&#x22;" horiz-adv-x="452" d="M0 1257l43 242q1 19 19 30.5t38 8.5q19 -3 31 -20t10 -37l-43 -242q-3 -17 -16.5 -29t-30.5 -12q-8 0 -12 2q-19 2 -30.5 18.5t-8.5 38.5zM156 1257l39 242q6 19 22.5 30.5t34.5 8.5q21 -3 32.5 -19.5t8.5 -37.5l-41 -242q-3 -18 -17 -29.5t-32 -11.5q-6 0 -8 2 q-20 1 -31 18t-8 39z" />
<glyph unicode="#" horiz-adv-x="1245" d="M0 553q0 21 16.5 39t38.5 18h183l57 256h-240q-23 0 -39 16.5t-16 41.5q0 23 16 40t39 17h267l40 221q8 21 27 33.5t39 9.5q54 -15 51 -69l-47 -195h254l49 221q3 20 24 33t42 10q24 -8 36.5 -26.5t8.5 -42.5l-41 -195h162q21 0 38 -17t17 -40q0 -24 -17 -41t-38 -17 h-189l-51 -256h240q20 0 37.5 -18.5t17.5 -38.5q0 -26 -16.5 -41.5t-38.5 -15.5h-267l-45 -228q-4 -19 -19.5 -32t-31.5 -13q-3 0 -7.5 2t-6.5 2q-50 6 -47 68l47 201h-258l-49 -228q-4 -20 -19.5 -32.5t-34.5 -12.5l-8 4q-27 3 -40.5 21.5t-10.5 46.5l51 201h-166 q-24 0 -39.5 15t-15.5 42zM358 610h252l60 256h-258z" />
<glyph unicode="$" horiz-adv-x="1089" d="M0 395v4q0 23 16.5 39.5t38.5 16.5q26 0 45 -16.5t19 -39.5q0 -77 37 -147q93 -137 288 -137q27 0 44.5 -17.5t17.5 -42.5q0 -10 -4 -16v-184q0 -24 -16 -41t-42 -17q-24 0 -39.5 17t-15.5 41v145q-226 19 -334 195q-55 100 -55 200zM0 1128q0 90 29 166q19 60 67 117 q61 61 133 92q22 10 45.5 1.5t30.5 -29.5q8 -26 -0.5 -49.5t-32.5 -30.5q-153 -63 -153 -267q0 -45 8 -84t30 -80t57 -69.5t94 -47t136 -18.5q155 0 256 -59q80 -43 138 -135q55 -96 55 -240q0 -100 -33 -178q-24 -62 -80 -115q-53 -53 -149 -82q-2 -4 -13 -4 q-20 0 -36.5 12t-24.5 31q-5 26 7 48.5t36 29.5q178 52 178 258q0 316 -334 316q-154 0 -249 57q-84 41 -140 129q-39 72 -49 143q-6 39 -6 88zM119 395v4v-4zM389 1485v198q0 24 15.5 40t39.5 16q26 0 42 -16t16 -40v-145q128 -8 210.5 -66.5t125.5 -136.5q24 -45 37.5 -99 t15.5 -75.5t2 -32.5v-4q0 -24 -15.5 -39.5t-39.5 -15.5q-26 0 -43 15t-17 40v4q-4 80 -47 154q-81 143 -287 143h-6h-4l-4 2q-41 13 -41 58zM778 1128z" />
<glyph unicode="%" horiz-adv-x="1015" d="M-1.5 42q-6.5 24 5.5 46l778 1417q10 22 34 28.5t46 -5.5q21 -12 27.5 -35t-4.5 -45l-779 -1417q-16 -31 -51 -31q-16 0 -28 6q-22 12 -28.5 36zM109 1395q0 59 40.5 100t98.5 41t99.5 -41t41.5 -100t-41.5 -100.5t-99.5 -41.5t-98.5 41.5t-40.5 100.5zM197 1395 q0 -23 14.5 -38.5t36.5 -15.5q23 0 38 15.5t15 38.5q0 22 -15 36.5t-38 14.5q-22 0 -36.5 -14.5t-14.5 -36.5zM494 141q0 59 41.5 100.5t99.5 41.5t99.5 -41.5t41.5 -100.5t-41 -100t-100 -41t-100 41t-41 100zM582 141q0 -22 15.5 -37.5t37.5 -15.5t37.5 15.5t15.5 37.5 t-15.5 38t-37.5 16t-37.5 -16t-15.5 -38z" />
<glyph unicode="&#x26;" horiz-adv-x="1044" d="M-10 334v497q0 23 17 40.5t42 17.5t42.5 -17.5t17.5 -40.5v-497q0 -66 34 -125q61 -113 226 -113q167 0 231 117q14 27 21.5 57.5t8.5 47.5l1 16v133h-103q-24 0 -41.5 17.5t-17.5 41.5q0 26 17.5 43t41.5 17h322q25 0 42 -17t17 -43q0 -25 -17 -42t-42 -17h-102v-133 q0 -92 -43 -178q-49 -81 -119 -125q-91 -56 -217 -56q-123 0 -217 56q-69 43 -115 125q-47 90 -47 178zM-10 1016v192q0 88 47 178q100 177 330 177q233 0 331 -148q50 -78 50 -158v-2q0 -25 -16.5 -41t-41.5 -16t-42 16t-17 41v-2q0 51 -33 97q-68 92 -231 92t-224 -113 q-34 -57 -34 -121v-135h337q26 0 44 -16t18 -41q0 -26 -18 -44t-44 -18h-397q-25 0 -42 18t-17 44z" />
<glyph unicode="'" horiz-adv-x="245" d="M6 1257l39 242q6 19 22.5 30.5t34.5 8.5q21 -3 32.5 -19.5t8.5 -37.5l-41 -242q-3 -18 -17 -29.5t-32 -11.5q-6 0 -8 2q-20 1 -31 18t-8 39z" />
<glyph unicode="(" horiz-adv-x="632" d="M0 766q0 213 63 387q50 129 146 236q46 48 99.5 83.5t78.5 46.5t41 15q3 0 8.5 1t7.5 1q25 0 42.5 -17t17.5 -42q0 -20 -12 -35.5t-31 -20.5l-4 -1q-4 -2 -9.5 -4.5t-14 -6.5t-18 -9.5t-21 -12t-24 -15.5t-25.5 -19.5t-27 -24t-27 -28.5q-174 -186 -174 -534 q0 -344 174 -533q36 -41 78.5 -70.5t66.5 -38.5l25 -9q19 -5 31 -20.5t12 -37.5q0 -23 -17.5 -40t-42.5 -17q-3 0 -8.5 1t-7.5 1q-15 4 -41.5 15t-79.5 46.5t-98 83.5q-94 101 -146 236q-63 171 -63 383z" />
<glyph unicode=")" horiz-adv-x="655" d="M0 57q0 20 12 36t31 22q5 0 27.5 10t65 39.5t79.5 68.5q174 189 174 535t-174 532q-37 42 -81 72t-66.5 39.5t-26.5 9.5h2q-19 6 -31 21.5t-12 34.5q0 25 17 42t42 17q2 0 8.5 -1t8.5 -1q123 -46 219 -148q94 -102 145 -233q66 -173 66 -385q0 -216 -66 -383 q-53 -140 -145 -235q-45 -49 -99 -85.5t-79 -47t-41 -15.5q-6 -2 -17 -2q-25 0 -42 16t-17 41z" />
<glyph unicode="*" horiz-adv-x="681" d="M-0.5 1091q3.5 19 20.5 31l142 95l-142 94q-17 10 -20.5 30t8.5 37q10 17 30.5 21.5t37.5 -6.5l157 -107v201q0 21 14.5 35t35.5 14q20 0 34.5 -14.5t14.5 -34.5v-201l157 107q17 11 37.5 6.5t30.5 -21.5t6.5 -36.5t-18.5 -30.5l-142 -94l142 -95q15 -12 18.5 -31 t-6.5 -36q-14 -23 -41 -23q-16 0 -27 8l-157 105v-199q0 -21 -14 -35t-35 -14q-22 0 -36 13.5t-14 35.5v199l-157 -105q-11 -8 -27 -8q-29 0 -41 23q-12 17 -8.5 36z" />
<glyph unicode="+" horiz-adv-x="800" d="M2 616q0 22 15 37t36 15h203v202q0 22 14.5 37t36.5 15t37.5 -15t15.5 -37v-202h203q20 0 34.5 -15t14.5 -37t-14.5 -36.5t-34.5 -14.5h-203v-203q0 -22 -15.5 -36.5t-37.5 -14.5t-36.5 14.5t-14.5 36.5v203h-203q-21 0 -36 15t-15 36z" />
<glyph unicode="," horiz-adv-x="215" d="M0 39v102q0 26 17.5 44t43.5 18t44 -18t18 -44v-102q0 -26 -18 -44t-44 -18t-43.5 18t-17.5 44z" />
<glyph unicode="-" horiz-adv-x="798" d="M0 614q0 22 15 38t36 16h510q21 0 36 -16t15 -38t-14.5 -36.5t-36.5 -14.5h-510q-22 0 -36.5 14.5t-14.5 36.5z" />
<glyph unicode="." horiz-adv-x="258" d="M59 61q0 26 18 44t44 18q25 0 43 -18t18 -44t-18 -43.5t-43 -17.5q-26 0 -44 17.5t-18 43.5z" />
<glyph unicode="/" horiz-adv-x="733" d="M0 74l393 1417q6 23 27.5 35t44.5 6q23 -8 35 -28.5t6 -43.5l-393 -1417q-4 -18 -20.5 -30.5t-35.5 -12.5q-3 0 -8.5 1t-7.5 1q-23 6 -35 27.5t-6 44.5z" />
<glyph unicode="0" horiz-adv-x="1126" d="M-6 768q0 85 2 142t16 156t41 173q59 146 152 215q122 92 291 92q168 0 288 -94q92 -72 148 -215q26 -75 39.5 -171.5t15.5 -152.5t2 -145v-6q0 -90 -2 -146.5t-15.5 -152t-39.5 -168.5q-53 -139 -148 -213q-118 -92 -288 -92q-175 0 -293 92q-93 69 -152 215 q-26 74 -39.5 170.5t-15.5 153.5t-2 147zM113 768q0 -84 1.5 -137t14 -141t35.5 -152q43 -118 123.5 -173.5t208.5 -55.5q124 0 204 55.5t121 171.5q23 64 35.5 151.5t14 139.5t1.5 135v6q0 83 -1.5 135.5t-14 140t-35.5 152.5q-81 229 -325 229q-249 0 -332 -227 q-51 -143 -51 -430zM229 766q0 23 17.5 40t42.5 17h407q24 0 42 -17t18 -40q0 -24 -18 -41.5t-42 -17.5h-407q-25 0 -42.5 17t-17.5 42z" />
<glyph unicode="1" horiz-adv-x="829" d="M2.5 1096q-1.5 24 13.5 43l156 186q15 20 40.5 21.5t43.5 -13.5q19 -17 21 -41t-15 -43l-156 -186q-21 -21 -45 -21q-19 0 -38 13q-19 17 -20.5 41zM61 59q0 24 18 41t40 17h200v1360q0 25 16.5 42t41.5 17t41 -17t16 -42v-1360h201q25 0 42 -16.5t17 -41.5t-17 -42 t-42 -17h-516q-22 0 -40 17.5t-18 41.5z" />
<glyph unicode="2" horiz-adv-x="1245" d="M-2 45q-5 20 3.5 38.5t27.5 27.5q4 0 69.5 36.5t186 114.5t225.5 162q69 54 129.5 108.5t124 124t108.5 136.5t74 143.5t29 146.5v4q0 86 -35 156q-80 157 -297 184q-25 3 -39.5 22t-11.5 44t21.5 39.5t43.5 11.5q292 -38 392 -254q43 -90 43 -207q0 -202 -164 -417 q-111 -150 -346 -336q-144 -116 -301 -213h753q24 0 41 -17t17 -41q0 -25 -17 -42t-41 -17h-979q-20 0 -35.5 12.5t-21.5 32.5zM-2 975q0 123 53 250q108 267 385 317q25 3 44.5 -10.5t23.5 -38.5q3 -25 -10.5 -44.5t-36.5 -23.5q-211 -38 -297 -245q-20 -47 -31.5 -98.5 t-12.5 -79.5l-1 -27q-2 -25 -19 -42.5t-41 -17.5q-25 2 -41.5 19t-15.5 41z" />
<glyph unicode="3" horiz-adv-x="1255" d="M0 537q0 25 17 41t42 16q24 0 41 -16.5t17 -40.5q0 -80 19 -145t48.5 -107.5t71 -74.5t80 -48.5t83 -27t73 -13t55.5 -2.5t55.5 2.5t72 13t82 27t79 48.5t69.5 74.5t47.5 107.5t18.5 145q0 255 -211 358q-47 24 -101.5 37t-84.5 14l-31 2q-37 0 -54 33q-16 31 9 63 l389 469q15 19 39.5 21.5t44.5 -12.5q18 -17 19.5 -41.5t-13.5 -42.5l-322 -385q81 -18 156 -52q121 -62 190 -159q86 -127 86 -305q0 -98 -23 -179.5t-63 -137t-81.5 -91t-90.5 -61.5q-131 -66 -282 -66q-156 0 -287 66q-50 25 -92 60.5t-82 90.5t-63 136.5t-23 181.5z M86 1477q0 23 17 40t42 17h490q23 0 40 -17t17 -40q0 -25 -17 -42.5t-40 -17.5h-490q-25 0 -42 17.5t-17 42.5z" />
<glyph unicode="4" horiz-adv-x="1200" d="M6 508q-17 33 4 61l713 944q27 33 65 21q17 -6 29 -22t12 -35v-779q0 -25 -17 -42t-42 -17t-42 17t-17 42v605l-535 -709h420q25 0 41 -17t16 -42t-16 -41.5t-41 -16.5h-537q-39 0 -53 31zM711 59v476q0 25 17 42t42 17h262q24 0 41 -17t17 -42q0 -24 -17 -41t-41 -17 h-203v-418q0 -25 -17 -42t-42 -17t-42 17t-17 42z" />
<glyph unicode="5" horiz-adv-x="1155" d="M0 467q0 24 16.5 40.5t40.5 16.5q25 0 42.5 -16.5t17.5 -40.5q0 -69 17 -125t43 -92.5t63 -63.5t71.5 -41.5t74.5 -23t65.5 -10.5t50.5 -2q19 0 41 2t61 10t74 21.5t73.5 41t66 63.5t45.5 93t18 127q0 217 -187 307q-96 45 -198 45h-154q-24 0 -40.5 18t-16.5 42 q0 25 16 42t41 17h154h2q19 0 50 -4t89.5 -16t123 -45t113.5 -82q123 -120 123 -324q0 -298 -237 -418q-121 -59 -258 -59q-142 0 -260 59q-242 116 -242 418zM90 879v598q0 24 16.5 40.5t40.5 16.5h695q25 0 42 -17t17 -40q0 -25 -17 -42.5t-42 -17.5h-633v-538 q0 -24 -18 -42t-44 -18q-24 0 -40.5 18t-16.5 42z" />
<glyph unicode="6" horiz-adv-x="1060" d="M0 469q0 14 2 20q0 2 -1 7t-1 8v147v277v137q0 164 53 270q51 91 137 144q102 57 254 57q235 0 359 -121q61 -64 86 -141q24 -76 24 -166q0 -25 -16 -42t-41 -17t-42 17t-17 42q0 142 -78 223q-88 88 -275 88q-213 0 -288 -141q-39 -80 -39 -213v-137v-424q0 -7 -4 -19 q4 -8 4 -16q0 -89 24 -156.5t60 -104.5t85 -60t90.5 -30t86.5 -7q36 0 70 5t75 18t75 39.5t63 64t45 97t16 134.5q0 224 -158 311q-77 45 -186 45q-99 0 -191 -53q-22 -12 -46 -5.5t-36 28.5t-5.5 46t28.5 36q119 69 250 69q135 0 244 -59q217 -122 217 -418 q0 -154 -64 -270q-58 -100 -149 -146q-104 -59 -248 -59q-145 0 -252 61q-97 54 -150 146q-61 107 -61 268z" />
<glyph unicode="7" horiz-adv-x="1067" d="M0 1479q0 23 17 40t40 17h881q36 0 51 -31q18 -24 0 -59l-883 -1417q-14 -29 -49 -29q-17 0 -28 8q-22 13 -27.5 36.5t6.5 45.5l826 1331h-777q-23 0 -40 16.5t-17 41.5z" />
<glyph unicode="8" horiz-adv-x="1208" d="M-10 469q0 166 88 279q66 91 188 141q1 1 3 2t3 2q-61 32 -106 84q-78 84 -78 215q0 125 72 209q51 66 149 106q104 43 228 43h2q118 0 229 -41q96 -41 152 -106q71 -89 71 -211q0 -130 -76 -215q-49 -53 -112 -86h4q120 -51 192 -139q91 -120 91 -283q0 -166 -82 -279 q-63 -90 -181 -147q-129 -57 -284 -57q-161 0 -287 57q-118 54 -182 145q-84 112 -84 281zM109 469q0 -229 196 -317q107 -48 238 -48q27 0 56 2.5t73 11t82.5 23.5t79.5 43t70 65t48 93.5t19 126.5q0 227 -209 311q-61 26 -131 37q-27 3 -46.5 24t-19.5 48q0 28 18.5 49.5 t47.5 22.5q48 8 90 24q151 61 151 207q0 144 -147 205q-80 33 -186 33h-2q-107 0 -185 -33q-145 -61 -145 -205q0 -151 158 -209q52 -18 77 -20q28 -3 47 -24t19 -50q0 -26 -18.5 -45.5t-43.5 -24.5q-63 -10 -133 -39q-204 -83 -204 -311z" />
<glyph unicode="9" horiz-adv-x="1087" d="M0 1067q0 165 61 272q54 97 150 148q106 59 248 59q145 0 252 -61q92 -49 151 -146q62 -112 62 -272q0 -12 -2 -18q2 -6 2 -15v-147v-277v-137q0 -164 -54 -270q-52 -96 -139 -146q-99 -57 -252 -57q-234 0 -360 123q-56 59 -86 139q-25 91 -25 168q0 22 17.5 40.5 t40.5 18.5q24 0 41.5 -18.5t17.5 -40.5q0 -145 78 -223q90 -90 276 -90q211 0 285 141q45 78 45 215v137v109t-0.5 113.5t-1 98t-0.5 74v29.5q0 7 4 19q-2 4 -2 14q0 90 -24.5 158t-61 106t-86.5 61.5t-91.5 30.5t-86.5 7q-44 0 -85 -7t-89.5 -30.5t-84 -61.5t-59.5 -106 t-24 -158q0 -223 153 -313q79 -43 189 -43q98 0 192 51q20 15 43.5 8.5t34.5 -29.5q12 -22 6 -44.5t-28 -34.5q-119 -70 -248 -70q-139 0 -242 59q-41 22 -76.5 54t-69 81t-52.5 121.5t-19 159.5z" />
<glyph unicode=":" horiz-adv-x="294" d="M55 227q0 36 26 62t62 26q35 0 61.5 -26.5t26.5 -61.5q0 -36 -26 -62t-62 -26q-37 0 -62.5 25.5t-25.5 62.5zM55 938q0 36 26 62t62 26q35 0 61.5 -26.5t26.5 -61.5q0 -36 -26 -62t-62 -26q-37 0 -62.5 25.5t-25.5 62.5z" />
<glyph unicode=";" horiz-adv-x="315" d="M49 936q0 36 26 62t62 26t62 -26t26 -62q0 -37 -25.5 -62.5t-62.5 -25.5t-62.5 25.5t-25.5 62.5zM55 156v139q0 34 24 58t58 24t58 -24t24 -58v-139q0 -34 -24 -58t-58 -24t-58 24t-24 58z" />
<glyph unicode="&#x3c;" horiz-adv-x="612" d="M0 614q0 29 16 45l390 349q19 17 42.5 17t36.5 -19q19 -19 18 -42t-20 -38l-338 -312l338 -307q19 -19 19 -43t-17 -41q-18 -18 -41 -18q-20 0 -38 14l-390 352q-16 16 -16 43z" />
<glyph unicode="=" horiz-adv-x="718" d="M0 510q0 22 14.5 36.5t36.5 14.5h510q22 0 36.5 -14.5t14.5 -36.5t-14.5 -37.5t-36.5 -15.5h-510q-22 0 -36.5 15.5t-14.5 37.5zM0 717q0 22 14.5 36.5t36.5 14.5h510q22 0 36.5 -14.5t14.5 -36.5t-14.5 -36.5t-36.5 -14.5h-510q-22 0 -36.5 14.5t-14.5 36.5z" />
<glyph unicode="&#x3e;" horiz-adv-x="612" d="M0 269q1 23 20 38l338 311l-338 308q-19 19 -19 43t17 41q18 18 41 18q21 0 39 -14l389 -352q17 -17 17 -44q0 -28 -17 -45l-389 -348q-19 -17 -43 -17t-37 19q-19 19 -18 42z" />
<glyph unicode="?" horiz-adv-x="946" d="M0 1090q0 151 51 253q18 36 44.5 67.5t67.5 62.5t103 49t137 18q262 0 375 -203q56 -106 56 -247q0 -144 -62 -250q-49 -90 -141 -148q-74 -44 -207 -57v-359q0 -26 -15.5 -43.5t-41.5 -17.5t-44 18t-18 43v412q0 26 18 45t44 19q82 0 144 20.5t99 53t60 78.5t31 90.5 t8 95.5q0 114 -39 192q-71 139 -267 139q-180 0 -241 -131q-39 -78 -39 -200q0 -27 -17.5 -45.5t-42.5 -18.5q-27 0 -45 18t-18 46zM305 59q0 25 18 41.5t44 16.5t41.5 -16.5t15.5 -41.5t-15.5 -42t-41.5 -17t-44 17t-18 42z" />
<glyph unicode="@" horiz-adv-x="1193" d="M43 719q0 170 72 289q60 96 170 153q121 62 282 62q52 0 107 -9q98 -16 166 -55q102 -55 159 -155q68 -117 68 -285q0 -73 -12 -131q-21 -146 -103 -228q-9 -14 -28 -30q-17 -14 -35 -25q-32 -16 -66 -6q-33 14 -49 55q-10 30 -10 76v25q-81 -68 -217 -68 q-205 0 -279 148q-41 75 -41 172q0 92 41 172q76 147 279 147q82 0 144.5 -25t99.5 -68.5t56 -95t21 -110.5v-8v-289h2q1 1 3.5 3t3.5 3q55 50 73 168q4 27 6 55.5t2 42.5v15v2q0 256 -167 346q-85 49 -224 49q-143 0 -235 -49q-182 -92 -182 -346q0 -268 129 -354 q86 -60 288 -60q25 0 49.5 4.5t35.5 8.5l12 4q20 9 40 2t29 -27q10 -20 2 -41.5t-28 -30.5q-52 -26 -140 -26q-111 0 -196.5 15t-153.5 65q-174 119 -174 440zM334 707q0 -73 26 -123q51 -95 187 -95q54 0 94.5 15.5t63 38t36.5 53.5t18.5 57t4.5 54t-4.5 53.5t-18.5 56.5 t-36.5 53t-63 37t-94.5 15q-137 0 -187 -95q-26 -50 -26 -120z" />
<glyph unicode="A" horiz-adv-x="1343" d="M4 82l588 1419q6 15 21 25t32 10q39 0 53 -35l582 -1419q9 -23 -0.5 -46t-32.5 -32q-22 -9 -44.5 0t-31.5 31l-526 1288l-530 -1288q-21 -35 -56 -35q-14 0 -22 4q-23 9 -32.5 32t-0.5 46zM375 473q0 -25 17 -42t42 -17h418q25 0 42 17t17 42t-17 42t-42 17h-418 q-25 0 -42 -17t-17 -42z" />
<glyph unicode="B" horiz-adv-x="1243" d="M57 59v1418q0 25 17.5 42t40.5 17h573q11 0 32.5 -2t72.5 -13.5t94 -31.5q91 -43 145 -119q64 -91 64 -229q0 -223 -172 -328q8 -4 14 -6q39 -23 72.5 -55t65.5 -80t50.5 -118.5t18.5 -154.5q0 -136 -70 -227q-60 -81 -155 -123q-111 -49 -234 -49h-4h-567 q-23 0 -40.5 17t-17.5 42zM174 119h508h4q98 0 186 39q156 70 156 241q0 219 -149 306q-84 47 -183 47h-4q-25 2 -41 18t-16 41q-1 23 15 40t40 19h6q87 0 158 41q125 65 125 230q0 169 -139 241q-74 35 -152 35h-514v-547h279q25 0 42 -17t17 -42q0 -24 -17.5 -41.5 t-41.5 -17.5h-279v-633z" />
<glyph unicode="C" horiz-adv-x="1339" d="M-6 768q0 69 1 108t7 110t21 134t40 119q62 136 181 219q133 86 336 86q275 0 430 -155q42 -43 73 -97.5t45.5 -96.5t22.5 -88t9 -63.5t1 -31.5v-2q0 -25 -16 -41.5t-41 -16.5t-43.5 17t-18.5 43q0 43 -14 102q-27 117 -104 191q-117 120 -344 120q-71 0 -130 -12.5 t-103.5 -33.5t-79.5 -54t-59.5 -68.5t-42 -83.5t-27.5 -92.5t-16 -101.5t-7.5 -104t-1.5 -107q0 -80 2 -131.5t16.5 -139.5t42.5 -153q103 -233 406 -233q294 0 405 208q25 47 39.5 103t16 76.5t1.5 33.5q0 24 18.5 41t43.5 17t41 -16.5t16 -41.5q0 -19 -2 -44.5t-19.5 -96 t-49.5 -129.5q-149 -270 -510 -270q-201 0 -334 86q-113 79 -180 219q-25 57 -41 121.5t-22 134.5t-7.5 111t-1.5 104z" />
<glyph unicode="D" horiz-adv-x="1271" d="M51 59v1418q0 25 16.5 42t41.5 17h403q19 0 51.5 -3t113.5 -27t150 -66q136 -86 217 -236q95 -185 95 -436q0 -259 -88 -436q-73 -146 -201 -234q-65 -43 -141 -67.5t-106 -27.5t-48 -3h-446q-25 0 -41.5 17t-16.5 42zM168 117h387q13 0 37 2.5t85 23t111 56.5 q234 166 234 569q0 407 -254 567q-35 23 -74.5 40t-69 25t-58 13t-39 5.5t-15.5 0.5h-344v-1302z" />
<glyph unicode="E" horiz-adv-x="1116" d="M51 59v811q0 25 16.5 42.5t41.5 17.5h649q25 0 42 -17.5t17 -42.5q0 -23 -17 -40t-42 -17h-590v-694h797q24 0 40.5 -17.5t16.5 -42.5t-16 -41t-41 -16h-856q-25 0 -41.5 16t-16.5 41zM51 1116v363q0 25 16.5 41t41.5 16h856q25 0 41 -16t16 -41t-16.5 -42.5t-40.5 -17.5 h-797v-303q0 -25 -17 -42t-42 -17t-41.5 17t-16.5 42z" />
<glyph unicode="F" horiz-adv-x="995" d="M0 59v603q0 23 18 40t41 17q25 0 42.5 -17t17.5 -40v-603q0 -23 -17.5 -41t-42.5 -18q-23 0 -41 18t-18 41zM0 889v590q0 24 17.5 40.5t41.5 16.5h856q24 0 42 -16.5t18 -40.5t-18 -41t-42 -17h-796v-471h520q25 0 43 -18t18 -43q0 -24 -18 -41t-43 -17h-580 q-24 0 -41.5 17t-17.5 41z" />
<glyph unicode="G" horiz-adv-x="1376" d="M-4 768q0 89 2 145.5t19 153.5t49 172q58 136 178 215q136 88 336 88q272 0 428 -156q51 -52 85 -117t46.5 -123t16 -87.5t3.5 -48.5v-2q0 -22 -17.5 -39t-41.5 -17q-23 0 -40.5 17.5t-17.5 40.5q0 45 -14 104q-29 111 -106 191q-117 120 -342 120q-90 0 -161.5 -20.5 t-120 -53.5t-83.5 -85.5t-54.5 -105t-30.5 -124.5t-14 -131t-3 -137t2 -129.5t16.5 -140.5t42.5 -154q105 -233 406 -233q217 0 333 116q19 19 41 19q25 0 42.5 -17.5t17.5 -42.5q0 -23 -17 -43q-153 -149 -417 -149q-202 0 -332 86q-122 81 -180 217q-25 58 -41 123 t-22 135t-7.5 110.5t-1.5 102.5zM715 532q0 -24 18 -40.5t43 -16.5h328v-418q0 -23 17 -40t42 -17q23 0 40.5 17t17.5 40v475q0 24 -17 41t-41 17h-387q-25 0 -43 -17t-18 -41z" />
<glyph unicode="H" horiz-adv-x="1239" d="M51 59v471q0 23 17.5 40.5t40.5 17.5q25 0 42 -17t17 -41v-471q0 -25 -17 -42t-42 -17q-23 0 -40.5 17t-17.5 42zM51 766v711q0 25 17.5 42t40.5 17q25 0 42 -17t17 -42v-652h856q23 0 40 -17t17 -42v-707q0 -25 -17 -42t-40 -17q-25 0 -42 17t-17 42v648h-856 q-23 0 -40.5 17.5t-17.5 41.5zM965 1006v471q0 25 17 42t42 17q23 0 40 -17t17 -42v-471q0 -23 -17 -40.5t-40 -17.5q-24 0 -41.5 17t-17.5 41z" />
<glyph unicode="I" horiz-adv-x="319" d="M0 59v1418q0 26 17 42.5t42 16.5q24 0 41 -16.5t17 -42.5v-1418q0 -26 -17 -42.5t-41 -16.5q-25 0 -42 16.5t-17 42.5z" />
<glyph unicode="J" horiz-adv-x="1077" d="M0 532q0 25 17 42.5t42 17.5q23 0 40.5 -17.5t17.5 -42.5q2 -111 47 -217q82 -198 280 -198q141 0 222 84q74 77 96 209q7 29 10.5 58.5t3.5 44.5v15v2v949q0 25 17 41t43 16q24 0 40.5 -16.5t16.5 -40.5v-949q0 -25 -2.5 -55t-14 -97t-44.5 -136t-84 -121 q-115 -121 -304 -121q-151 0 -260 86q-86 74 -131 186q-23 57 -36 124.5t-15 94.5t-2 41z" />
<glyph unicode="K" horiz-adv-x="1165" d="M45 57v518q0 19 14 37l779 901q17 20 41 23t43 -14t21 -41t-15 -43l-490 -566l604 -778q14 -20 11 -44.5t-23 -39.5q-12 -10 -35 -10q-31 0 -45 20l-588 762l-200 -229v-496q0 -23 -17 -40t-41 -17q-25 0 -42 17t-17 40zM45 905v572q0 24 17.5 41.5t41.5 17.5t41 -17.5 t17 -41.5v-572q0 -25 -16.5 -41t-41.5 -16t-42 16t-17 41z" />
<glyph unicode="L" horiz-adv-x="1034" d="M0 59q0 25 17 41.5t42 16.5h779q24 0 41.5 -17t17.5 -41t-17.5 -41.5t-41.5 -17.5h-779q-25 0 -42 17t-17 42zM0 236v1241q0 25 17 42t42 17t41.5 -17t16.5 -42v-1241q0 -25 -16.5 -41.5t-41.5 -16.5t-42 16.5t-17 41.5z" />
<glyph unicode="M" horiz-adv-x="1513" d="M57 57v1422q0 19 11.5 35t31.5 20q19 6 37.5 -1t28.5 -24l530 -866l537 866q17 28 45 28q9 0 20 -3q20 -4 31.5 -20t11.5 -35v-1422q0 -25 -17 -41t-42 -16t-41 16t-16 41v1215l-477 -772q-20 -27 -52 -27t-49 27l-473 772v-1215q0 -25 -16 -41t-41 -16t-42.5 16.5 t-17.5 40.5z" />
<glyph unicode="N" horiz-adv-x="1284" d="M51 59v1418q0 44 41 57q20 5 38.5 -1.5t27.5 -23.5l417 -606q12 -20 8 -44.5t-22 -37.5q-20 -14 -44.5 -9t-37.5 26l-311 450v-1229q0 -25 -16 -42t-41 -17t-42.5 17t-17.5 42zM613 673q4 24 24 36q19 15 43.5 11t36.5 -26l307 -446v1229q0 25 17 42t40 17q25 0 42.5 -17 t17.5 -42v-1418q0 -44 -41 -57q-3 0 -9.5 -1t-9.5 -1q-32 0 -47 27l-413 602q-12 20 -8 44z" />
<glyph unicode="O" horiz-adv-x="1298" d="M-4 768q0 201 35 350q36 158 108 244q74 92 193 139q102 41 258 41q159 0 260 -49q113 -45 192 -147q138 -190 138 -578q0 -190 -35 -336q-39 -147 -117 -244q-147 -194 -438 -194q-295 0 -438 180q-156 188 -156 594zM113 768q0 -358 125 -520q109 -135 352 -135 q235 0 350 151q123 168 123 504q0 346 -113 504q-113 151 -360 151q-255 0 -361 -135q-116 -152 -116 -520z" />
<glyph unicode="P" horiz-adv-x="1245" d="M57 57v1422q0 23 16.5 40t41.5 17h526q12 0 29 -1t61.5 -9t86.5 -22t94.5 -44t93.5 -71q141 -138 141 -381q0 -98 -22.5 -179t-62 -136t-80.5 -91.5t-89 -60.5q-56 -30 -121 -47t-89.5 -19t-41.5 -2h-61q-23 0 -40.5 17t-17.5 40q0 26 17 44t41 18h61q103 0 201 53 q186 101 186 363q0 192 -104 299q-71 68 -181 98q-57 12 -102 12h-467v-825h201q25 0 42 -18t17 -44q0 -23 -17 -40t-42 -17h-201v-416q0 -23 -17 -40t-42 -17t-41.5 17t-16.5 40z" />
<glyph unicode="Q" horiz-adv-x="1310" d="M-2 778q0 206 33 344q35 152 108 242q78 97 189 137q112 39 256 39q149 0 254 -47q108 -40 186 -145q137 -186 137 -570q0 -183 -35 -329q-45 -155 -108 -236q-21 -25 -47 -25q-23 0 -39.5 17.5t-16.5 42.5q0 17 9 35h2q121 156 121 495q0 343 -111 496 q-107 151 -352 151q-254 0 -359 -137q-112 -144 -112 -510q0 -359 123 -508q107 -137 348 -137q131 0 221 47q15 7 29 7q21 0 38 -17l213 -213q17 -17 17 -40t-17 -42q-17 -17 -40.5 -17t-40.5 17l-183 184q-112 -45 -237 -45q-291 0 -434 181q-152 183 -152 583z" />
<glyph unicode="R" horiz-adv-x="1302" d="M72 57v1420q0 25 17 42t42 17h500q13 0 31.5 -1t66 -9.5t92 -23.5t100 -47t99.5 -75q141 -138 141 -374q0 -155 -49 -265q-42 -91 -121 -161q-20 -15 -43.5 -13t-40.5 19q-15 19 -12 44t20 40q127 106 127 336q0 188 -104 292q-77 74 -197 105q-28 6 -55.5 9.5t-41.5 3.5 l-13 1h-441v-825h523q22 0 41 -19l438 -475q16 -17 15 -42t-19 -40q-16 -16 -41 -16q-27 0 -41 20l-422 453h-494v-416q0 -23 -18 -40t-41 -17q-25 0 -42 17t-17 40z" />
<glyph unicode="S" horiz-adv-x="1015" d="M-4 393q0 25 17.5 43.5t41.5 18.5q23 0 41.5 -18.5t18.5 -43.5q0 -73 41 -143q81 -139 288 -139q328 0 328 282q0 264 -229 307q-25 5 -38 25t-7 45q4 25 23.5 37.5t45.5 7.5q110 -18 185 -84q65 -50 100 -131q39 -88 39 -207q0 -133 -55 -225q-47 -74 -144 -125 q-100 -49 -248 -49q-82 0 -149.5 18t-113.5 48.5t-76.5 62.5t-51.5 70q-25 44 -39 95t-16 72.5t-2 32.5zM-4 1128q0 48 6 89q17 87 51 141q48 79 140 131q106 53 249 53q81 0 148.5 -18.5t114 -50.5t77 -65.5t52.5 -72.5q23 -42 37 -91t17 -73.5t3 -40.5v-2q0 -25 -17 -42 t-40 -17q-25 0 -42.5 16.5t-17.5 40.5h-2h2l-1 9q-1 9 -3.5 25t-6.5 34.5t-13 41.5t-21 44q-82 145 -287 145q-78 0 -137.5 -18.5t-94.5 -47.5t-57 -69.5t-30 -79t-8 -82.5q0 -264 254 -297q23 -3 37.5 -22.5t11.5 -42.5q-3 -22 -19.5 -36.5t-38.5 -14.5q-6 0 -8 2 q-122 12 -202 74q-73 54 -109 131q-45 88 -45 206z" />
<glyph unicode="T" horiz-adv-x="1226" d="M0 1477q0 25 17 42t42 17h971q25 0 42.5 -17t17.5 -42q0 -23 -17.5 -40.5t-42.5 -17.5h-971q-25 0 -42 17.5t-17 40.5zM483 59v1215q0 24 17 40.5t43 16.5q25 0 42 -17t17 -40v-1215q0 -25 -17 -42t-42 -17q-26 0 -43 17t-17 42z" />
<glyph unicode="U" horiz-adv-x="1187" d="M51 526v951q0 26 17 42.5t43 16.5q24 0 39.5 -16.5t15.5 -42.5v-951q0 -10 2.5 -34.5t15.5 -79.5t35 -101q91 -198 336 -198q244 0 338 202q21 47 33 102.5t14 77.5t2 33v949q0 26 16 42.5t41 16.5t42.5 -16.5t17.5 -42.5v-949q0 -16 -2 -43t-17.5 -95t-42.5 -126 q-58 -122 -149 -184q-124 -86 -293 -86q-219 0 -350 131q-43 44 -74.5 102t-46 104t-23 95.5t-9.5 68.5t-1 31z" />
<glyph unicode="V" horiz-adv-x="1382" d="M12 1454q-9 23 0.5 46t32.5 32q23 8 45 -1.5t31 -33.5l524 -1284l533 1286q16 37 55 37q8 0 20 -4q23 -9 32 -32t-1 -46l-584 -1417q-13 -37 -55 -37q-37 0 -53 37z" />
<glyph unicode="W" horiz-adv-x="1718" d="M8 1460q-6 26 7 47t38 27q24 5 44 -8t26 -37l309 -1243l219 528q11 22 32.5 31.5t45.5 -0.5q23 -7 32 -29.5t1 -46.5l-291 -694q-6 -16 -20.5 -25.5t-30.5 -9.5h-6q-19 1 -33 13.5t-19 29.5zM758 983q-9 24 0.5 46.5t32.5 29.5q23 10 44.5 0.5t30.5 -31.5l316 -780 l309 1241q7 25 28 37.5t46 7.5q23 -6 35 -27t6 -47l-351 -1417q-5 -17 -20 -29.5t-35 -13.5h-2q-43 0 -55 35z" />
<glyph unicode="X" horiz-adv-x="1271" d="M0.5 49.5q-3.5 24.5 11.5 44.5l502 674l-502 674q-15 20 -11.5 45t22.5 39q20 14 44 10.5t37 -23.5l529 -710q12 -18 12.5 -36t-12.5 -36l-529 -706q-16 -25 -45 -25q-16 0 -36 10q-19 15 -22.5 39.5zM629.5 642q3.5 25 23.5 38q20 14 43.5 11t38.5 -23l432 -574 q14 -19 10.5 -44t-22.5 -40q-17 -10 -35 -10q-31 0 -47 25l-432 573q-15 19 -11.5 44zM629.5 895q-3.5 26 11.5 43l432 575q15 20 38.5 23.5t43.5 -10.5q19 -13 22.5 -39t-10.5 -45l-432 -574q-18 -24 -47 -24q-18 0 -35 10q-20 15 -23.5 41z" />
<glyph unicode="Y" horiz-adv-x="1196" d="M9.5 1488.5q4.5 23.5 23.5 37.5q22 13 45.5 8.5t38.5 -23.5l221 -323q14 -20 10 -44.5t-24 -37.5q-17 -10 -33 -10q-32 0 -49 24l-222 324q-15 21 -10.5 44.5zM370 964.5q4 22.5 23 36.5q22 15 45 10.5t37 -24.5l78 -115l438 639q14 19 38 23.5t44 -8.5q20 -14 25 -38 t-8 -44l-478 -692v-695q0 -23 -17 -40t-42 -17q-24 0 -40.5 17.5t-16.5 39.5v695l-117 170q-13 20 -9 42.5z" />
<glyph unicode="Z" horiz-adv-x="1263" d="M2 1479q0 24 18 40.5t43 16.5h654q25 0 42 -16t17 -41t-17 -41.5t-42 -16.5h-654q-25 0 -43 17t-18 41zM10 31q-18 33 4 59l973 1421q13 21 37 26t43 -9q21 -13 25.5 -37.5t-9.5 -44.5l-909 -1329h862q23 0 40.5 -17.5t17.5 -42.5q0 -24 -17 -40.5t-41 -16.5h-973 q-36 0 -53 31z" />
<glyph unicode="[" horiz-adv-x="417" d="M0 57v1418q0 25 17.5 43t43.5 18h191q26 0 43.5 -18t17.5 -43q0 -24 -17.5 -41t-43.5 -17h-133v-1298h133q26 0 43.5 -18.5t17.5 -43.5t-17.5 -41t-43.5 -16h-191q-26 0 -43.5 16t-17.5 41z" />
<glyph unicode="\" horiz-adv-x="651" d="M4 1462q-6 24 5.5 45t35.5 27t45 -5.5t27 -35.5l393 -1419q6 -25 -6 -45.5t-37 -26.5q-4 -2 -14 -2q-19 0 -35.5 11.5t-20.5 29.5z" />
<glyph unicode="]" horiz-adv-x="432" d="M-2 61q0 24 17.5 41t43.5 17h134v1298h-134q-26 0 -43.5 18.5t-17.5 43.5t17.5 41t43.5 16h191q26 0 43.5 -16t17.5 -41v-1418q0 -25 -17.5 -43t-43.5 -18h-191q-26 0 -43.5 18t-17.5 43z" />
<glyph unicode="^" horiz-adv-x="667" d="M7.5 1240q-2.5 23 12.5 42l195 234q19 22 45 22t45 -22l193 -234q15 -19 12.5 -42t-21.5 -40q-12 -12 -36 -12q-31 0 -47 22l-146 179l-147 -179q-15 -20 -40 -22.5t-44 12.5q-19 17 -21.5 40z" />
<glyph unicode="_" horiz-adv-x="782" d="M0 -51q0 22 15 36.5t38 14.5h508q22 0 36.5 -14.5t14.5 -36.5t-14.5 -36.5t-36.5 -14.5h-508q-23 0 -38 14.5t-15 36.5z" />
<glyph unicode="`" horiz-adv-x="169" d="M6 1241l43 250q2 22 17 32.5t38 6.5q20 0 33 -17.5t8 -39.5l-43 -246q-1 -16 -16.5 -28.5t-28.5 -12.5h-12q-19 5 -31 21.5t-8 33.5z" />
<glyph unicode="a" horiz-adv-x="1343" d="M4 82l588 1419q6 15 21 25t32 10q39 0 53 -35l582 -1419q9 -23 -0.5 -46t-32.5 -32q-22 -9 -44.5 0t-31.5 31l-526 1288l-530 -1288q-21 -35 -56 -35q-14 0 -22 4q-23 9 -32.5 32t-0.5 46zM375 473q0 -25 17 -42t42 -17h418q25 0 42 17t17 42t-17 42t-42 17h-418 q-25 0 -42 -17t-17 -42z" />
<glyph unicode="b" horiz-adv-x="1243" d="M57 59v1418q0 25 17.5 42t40.5 17h573q11 0 32.5 -2t72.5 -13.5t94 -31.5q91 -43 145 -119q64 -91 64 -229q0 -223 -172 -328q8 -4 14 -6q39 -23 72.5 -55t65.5 -80t50.5 -118.5t18.5 -154.5q0 -136 -70 -227q-60 -81 -155 -123q-111 -49 -234 -49h-4h-567 q-23 0 -40.5 17t-17.5 42zM174 119h508h4q98 0 186 39q156 70 156 241q0 219 -149 306q-84 47 -183 47h-4q-25 2 -41 18t-16 41q-1 23 15 40t40 19h6q87 0 158 41q125 65 125 230q0 169 -139 241q-74 35 -152 35h-514v-547h279q25 0 42 -17t17 -42q0 -24 -17.5 -41.5 t-41.5 -17.5h-279v-633z" />
<glyph unicode="c" horiz-adv-x="1339" d="M-6 768q0 69 1 108t7 110t21 134t40 119q62 136 181 219q133 86 336 86q275 0 430 -155q42 -43 73 -97.5t45.5 -96.5t22.5 -88t9 -63.5t1 -31.5v-2q0 -25 -16 -41.5t-41 -16.5t-43.5 17t-18.5 43q0 43 -14 102q-27 117 -104 191q-117 120 -344 120q-71 0 -130 -12.5 t-103.5 -33.5t-79.5 -54t-59.5 -68.5t-42 -83.5t-27.5 -92.5t-16 -101.5t-7.5 -104t-1.5 -107q0 -80 2 -131.5t16.5 -139.5t42.5 -153q103 -233 406 -233q294 0 405 208q25 47 39.5 103t16 76.5t1.5 33.5q0 24 18.5 41t43.5 17t41 -16.5t16 -41.5q0 -19 -2 -44.5t-19.5 -96 t-49.5 -129.5q-149 -270 -510 -270q-201 0 -334 86q-113 79 -180 219q-25 57 -41 121.5t-22 134.5t-7.5 111t-1.5 104z" />
<glyph unicode="d" horiz-adv-x="1271" d="M51 59v1418q0 25 16.5 42t41.5 17h403q19 0 51.5 -3t113.5 -27t150 -66q136 -86 217 -236q95 -185 95 -436q0 -259 -88 -436q-73 -146 -201 -234q-65 -43 -141 -67.5t-106 -27.5t-48 -3h-446q-25 0 -41.5 17t-16.5 42zM168 117h387q13 0 37 2.5t85 23t111 56.5 q234 166 234 569q0 407 -254 567q-35 23 -74.5 40t-69 25t-58 13t-39 5.5t-15.5 0.5h-344v-1302z" />
<glyph unicode="e" horiz-adv-x="1116" d="M51 59v811q0 25 16.5 42.5t41.5 17.5h649q25 0 42 -17.5t17 -42.5q0 -23 -17 -40t-42 -17h-590v-694h797q24 0 40.5 -17.5t16.5 -42.5t-16 -41t-41 -16h-856q-25 0 -41.5 16t-16.5 41zM51 1116v363q0 25 16.5 41t41.5 16h856q25 0 41 -16t16 -41t-16.5 -42.5t-40.5 -17.5 h-797v-303q0 -25 -17 -42t-42 -17t-41.5 17t-16.5 42z" />
<glyph unicode="f" horiz-adv-x="995" d="M0 59v603q0 23 18 40t41 17q25 0 42.5 -17t17.5 -40v-603q0 -23 -17.5 -41t-42.5 -18q-23 0 -41 18t-18 41zM0 889v590q0 24 17.5 40.5t41.5 16.5h856q24 0 42 -16.5t18 -40.5t-18 -41t-42 -17h-796v-471h520q25 0 43 -18t18 -43q0 -24 -18 -41t-43 -17h-580 q-24 0 -41.5 17t-17.5 41z" />
<glyph unicode="g" horiz-adv-x="1376" d="M-4 768q0 89 2 145.5t19 153.5t49 172q58 136 178 215q136 88 336 88q272 0 428 -156q51 -52 85 -117t46.5 -123t16 -87.5t3.5 -48.5v-2q0 -22 -17.5 -39t-41.5 -17q-23 0 -40.5 17.5t-17.5 40.5q0 45 -14 104q-29 111 -106 191q-117 120 -342 120q-90 0 -161.5 -20.5 t-120 -53.5t-83.5 -85.5t-54.5 -105t-30.5 -124.5t-14 -131t-3 -137t2 -129.5t16.5 -140.5t42.5 -154q105 -233 406 -233q217 0 333 116q19 19 41 19q25 0 42.5 -17.5t17.5 -42.5q0 -23 -17 -43q-153 -149 -417 -149q-202 0 -332 86q-122 81 -180 217q-25 58 -41 123 t-22 135t-7.5 110.5t-1.5 102.5zM715 532q0 -24 18 -40.5t43 -16.5h328v-418q0 -23 17 -40t42 -17q23 0 40.5 17t17.5 40v475q0 24 -17 41t-41 17h-387q-25 0 -43 -17t-18 -41z" />
<glyph unicode="h" horiz-adv-x="1239" d="M51 59v471q0 23 17.5 40.5t40.5 17.5q25 0 42 -17t17 -41v-471q0 -25 -17 -42t-42 -17q-23 0 -40.5 17t-17.5 42zM51 766v711q0 25 17.5 42t40.5 17q25 0 42 -17t17 -42v-652h856q23 0 40 -17t17 -42v-707q0 -25 -17 -42t-40 -17q-25 0 -42 17t-17 42v648h-856 q-23 0 -40.5 17.5t-17.5 41.5zM965 1006v471q0 25 17 42t42 17q23 0 40 -17t17 -42v-471q0 -23 -17 -40.5t-40 -17.5q-24 0 -41.5 17t-17.5 41z" />
<glyph unicode="i" horiz-adv-x="319" d="M0 59v1418q0 26 17 42.5t42 16.5q24 0 41 -16.5t17 -42.5v-1418q0 -26 -17 -42.5t-41 -16.5q-25 0 -42 16.5t-17 42.5z" />
<glyph unicode="j" horiz-adv-x="1077" d="M0 532q0 25 17 42.5t42 17.5q23 0 40.5 -17.5t17.5 -42.5q2 -111 47 -217q82 -198 280 -198q141 0 222 84q74 77 96 209q7 29 10.5 58.5t3.5 44.5v15v2v949q0 25 17 41t43 16q24 0 40.5 -16.5t16.5 -40.5v-949q0 -25 -2.5 -55t-14 -97t-44.5 -136t-84 -121 q-115 -121 -304 -121q-151 0 -260 86q-86 74 -131 186q-23 57 -36 124.5t-15 94.5t-2 41z" />
<glyph unicode="k" horiz-adv-x="1165" d="M45 57v518q0 19 14 37l779 901q17 20 41 23t43 -14t21 -41t-15 -43l-490 -566l604 -778q14 -20 11 -44.5t-23 -39.5q-12 -10 -35 -10q-31 0 -45 20l-588 762l-200 -229v-496q0 -23 -17 -40t-41 -17q-25 0 -42 17t-17 40zM45 905v572q0 24 17.5 41.5t41.5 17.5t41 -17.5 t17 -41.5v-572q0 -25 -16.5 -41t-41.5 -16t-42 16t-17 41z" />
<glyph unicode="l" horiz-adv-x="1034" d="M0 59q0 25 17 41.5t42 16.5h779q24 0 41.5 -17t17.5 -41t-17.5 -41.5t-41.5 -17.5h-779q-25 0 -42 17t-17 42zM0 236v1241q0 25 17 42t42 17t41.5 -17t16.5 -42v-1241q0 -25 -16.5 -41.5t-41.5 -16.5t-42 16.5t-17 41.5z" />
<glyph unicode="m" horiz-adv-x="1513" d="M57 57v1422q0 19 11.5 35t31.5 20q19 6 37.5 -1t28.5 -24l530 -866l537 866q17 28 45 28q9 0 20 -3q20 -4 31.5 -20t11.5 -35v-1422q0 -25 -17 -41t-42 -16t-41 16t-16 41v1215l-477 -772q-20 -27 -52 -27t-49 27l-473 772v-1215q0 -25 -16 -41t-41 -16t-42.5 16.5 t-17.5 40.5z" />
<glyph unicode="n" horiz-adv-x="1284" d="M51 59v1418q0 44 41 57q20 5 38.5 -1.5t27.5 -23.5l417 -606q12 -20 8 -44.5t-22 -37.5q-20 -14 -44.5 -9t-37.5 26l-311 450v-1229q0 -25 -16 -42t-41 -17t-42.5 17t-17.5 42zM613 673q4 24 24 36q19 15 43.5 11t36.5 -26l307 -446v1229q0 25 17 42t40 17q25 0 42.5 -17 t17.5 -42v-1418q0 -44 -41 -57q-3 0 -9.5 -1t-9.5 -1q-32 0 -47 27l-413 602q-12 20 -8 44z" />
<glyph unicode="o" horiz-adv-x="1298" d="M-4 768q0 201 35 350q36 158 108 244q74 92 193 139q102 41 258 41q159 0 260 -49q113 -45 192 -147q138 -190 138 -578q0 -190 -35 -336q-39 -147 -117 -244q-147 -194 -438 -194q-295 0 -438 180q-156 188 -156 594zM113 768q0 -358 125 -520q109 -135 352 -135 q235 0 350 151q123 168 123 504q0 346 -113 504q-113 151 -360 151q-255 0 -361 -135q-116 -152 -116 -520z" />
<glyph unicode="p" horiz-adv-x="1245" d="M57 57v1422q0 23 16.5 40t41.5 17h526q12 0 29 -1t61.5 -9t86.5 -22t94.5 -44t93.5 -71q141 -138 141 -381q0 -98 -22.5 -179t-62 -136t-80.5 -91.5t-89 -60.5q-56 -30 -121 -47t-89.5 -19t-41.5 -2h-61q-23 0 -40.5 17t-17.5 40q0 26 17 44t41 18h61q103 0 201 53 q186 101 186 363q0 192 -104 299q-71 68 -181 98q-57 12 -102 12h-467v-825h201q25 0 42 -18t17 -44q0 -23 -17 -40t-42 -17h-201v-416q0 -23 -17 -40t-42 -17t-41.5 17t-16.5 40z" />
<glyph unicode="q" horiz-adv-x="1310" d="M-2 778q0 206 33 344q35 152 108 242q78 97 189 137q112 39 256 39q149 0 254 -47q108 -40 186 -145q137 -186 137 -570q0 -183 -35 -329q-45 -155 -108 -236q-21 -25 -47 -25q-23 0 -39.5 17.5t-16.5 42.5q0 17 9 35h2q121 156 121 495q0 343 -111 496 q-107 151 -352 151q-254 0 -359 -137q-112 -144 -112 -510q0 -359 123 -508q107 -137 348 -137q131 0 221 47q15 7 29 7q21 0 38 -17l213 -213q17 -17 17 -40t-17 -42q-17 -17 -40.5 -17t-40.5 17l-183 184q-112 -45 -237 -45q-291 0 -434 181q-152 183 -152 583z" />
<glyph unicode="r" horiz-adv-x="1302" d="M72 57v1420q0 25 17 42t42 17h500q13 0 31.5 -1t66 -9.5t92 -23.5t100 -47t99.5 -75q141 -138 141 -374q0 -155 -49 -265q-42 -91 -121 -161q-20 -15 -43.5 -13t-40.5 19q-15 19 -12 44t20 40q127 106 127 336q0 188 -104 292q-77 74 -197 105q-28 6 -55.5 9.5t-41.5 3.5 l-13 1h-441v-825h523q22 0 41 -19l438 -475q16 -17 15 -42t-19 -40q-16 -16 -41 -16q-27 0 -41 20l-422 453h-494v-416q0 -23 -18 -40t-41 -17q-25 0 -42 17t-17 40z" />
<glyph unicode="s" horiz-adv-x="1015" d="M-4 393q0 25 17.5 43.5t41.5 18.5q23 0 41.5 -18.5t18.5 -43.5q0 -73 41 -143q81 -139 288 -139q328 0 328 282q0 264 -229 307q-25 5 -38 25t-7 45q4 25 23.5 37.5t45.5 7.5q110 -18 185 -84q65 -50 100 -131q39 -88 39 -207q0 -133 -55 -225q-47 -74 -144 -125 q-100 -49 -248 -49q-82 0 -149.5 18t-113.5 48.5t-76.5 62.5t-51.5 70q-25 44 -39 95t-16 72.5t-2 32.5zM-4 1128q0 48 6 89q17 87 51 141q48 79 140 131q106 53 249 53q81 0 148.5 -18.5t114 -50.5t77 -65.5t52.5 -72.5q23 -42 37 -91t17 -73.5t3 -40.5v-2q0 -25 -17 -42 t-40 -17q-25 0 -42.5 16.5t-17.5 40.5h-2h2l-1 9q-1 9 -3.5 25t-6.5 34.5t-13 41.5t-21 44q-82 145 -287 145q-78 0 -137.5 -18.5t-94.5 -47.5t-57 -69.5t-30 -79t-8 -82.5q0 -264 254 -297q23 -3 37.5 -22.5t11.5 -42.5q-3 -22 -19.5 -36.5t-38.5 -14.5q-6 0 -8 2 q-122 12 -202 74q-73 54 -109 131q-45 88 -45 206z" />
<glyph unicode="t" horiz-adv-x="1226" d="M0 1477q0 25 17 42t42 17h971q25 0 42.5 -17t17.5 -42q0 -23 -17.5 -40.5t-42.5 -17.5h-971q-25 0 -42 17.5t-17 40.5zM483 59v1215q0 24 17 40.5t43 16.5q25 0 42 -17t17 -40v-1215q0 -25 -17 -42t-42 -17q-26 0 -43 17t-17 42z" />
<glyph unicode="u" horiz-adv-x="1187" d="M51 526v951q0 26 17 42.5t43 16.5q24 0 39.5 -16.5t15.5 -42.5v-951q0 -10 2.5 -34.5t15.5 -79.5t35 -101q91 -198 336 -198q244 0 338 202q21 47 33 102.5t14 77.5t2 33v949q0 26 16 42.5t41 16.5t42.5 -16.5t17.5 -42.5v-949q0 -16 -2 -43t-17.5 -95t-42.5 -126 q-58 -122 -149 -184q-124 -86 -293 -86q-219 0 -350 131q-43 44 -74.5 102t-46 104t-23 95.5t-9.5 68.5t-1 31z" />
<glyph unicode="v" horiz-adv-x="1382" d="M12 1454q-9 23 0.5 46t32.5 32q23 8 45 -1.5t31 -33.5l524 -1284l533 1286q16 37 55 37q8 0 20 -4q23 -9 32 -32t-1 -46l-584 -1417q-13 -37 -55 -37q-37 0 -53 37z" />
<glyph unicode="w" horiz-adv-x="1718" d="M8 1460q-6 26 7 47t38 27q24 5 44 -8t26 -37l309 -1243l219 528q11 22 32.5 31.5t45.5 -0.5q23 -7 32 -29.5t1 -46.5l-291 -694q-6 -16 -20.5 -25.5t-30.5 -9.5h-6q-19 1 -33 13.5t-19 29.5zM758 983q-9 24 0.5 46.5t32.5 29.5q23 10 44.5 0.5t30.5 -31.5l316 -780 l309 1241q7 25 28 37.5t46 7.5q23 -6 35 -27t6 -47l-351 -1417q-5 -17 -20 -29.5t-35 -13.5h-2q-43 0 -55 35z" />
<glyph unicode="x" horiz-adv-x="1271" d="M0.5 49.5q-3.5 24.5 11.5 44.5l502 674l-502 674q-15 20 -11.5 45t22.5 39q20 14 44 10.5t37 -23.5l529 -710q12 -18 12.5 -36t-12.5 -36l-529 -706q-16 -25 -45 -25q-16 0 -36 10q-19 15 -22.5 39.5zM629.5 642q3.5 25 23.5 38q20 14 43.5 11t38.5 -23l432 -574 q14 -19 10.5 -44t-22.5 -40q-17 -10 -35 -10q-31 0 -47 25l-432 573q-15 19 -11.5 44zM629.5 895q-3.5 26 11.5 43l432 575q15 20 38.5 23.5t43.5 -10.5q19 -13 22.5 -39t-10.5 -45l-432 -574q-18 -24 -47 -24q-18 0 -35 10q-20 15 -23.5 41z" />
<glyph unicode="y" horiz-adv-x="1196" d="M9.5 1488.5q4.5 23.5 23.5 37.5q22 13 45.5 8.5t38.5 -23.5l221 -323q14 -20 10 -44.5t-24 -37.5q-17 -10 -33 -10q-32 0 -49 24l-222 324q-15 21 -10.5 44.5zM370 964.5q4 22.5 23 36.5q22 15 45 10.5t37 -24.5l78 -115l438 639q14 19 38 23.5t44 -8.5q20 -14 25 -38 t-8 -44l-478 -692v-695q0 -23 -17 -40t-42 -17q-24 0 -40.5 17.5t-16.5 39.5v695l-117 170q-13 20 -9 42.5z" />
<glyph unicode="z" horiz-adv-x="1263" d="M2 1479q0 24 18 40.5t43 16.5h654q25 0 42 -16t17 -41t-17 -41.5t-42 -16.5h-654q-25 0 -43 17t-18 41zM10 31q-18 33 4 59l973 1421q13 21 37 26t43 -9q21 -13 25.5 -37.5t-9.5 -44.5l-909 -1329h862q23 0 40.5 -17.5t17.5 -42.5q0 -24 -17 -40.5t-41 -16.5h-973 q-36 0 -53 31z" />
<glyph unicode="{" horiz-adv-x="655" d="M0 770q0 23 17 40t42 17h97q9 412 102 590q22 40 47 66.5t47 36.5t34 13t22 3q24 0 40.5 -16.5t16.5 -40.5q0 -23 -15.5 -40t-37.5 -22q-4 0 -12 -5.5t-24 -27.5t-30 -55q-74 -169 -74 -559q0 -394 74 -563q14 -33 30 -55t24 -27.5t12 -5.5q22 -5 37.5 -22t15.5 -40 q0 -24 -16.5 -40.5t-40.5 -16.5q-10 0 -22 3t-34 13t-47 36.5t-47 66.5q-93 178 -102 590h-97q-26 0 -42.5 18t-16.5 43z" />
<glyph unicode="|" horiz-adv-x="321" d="M78 1593q0 25 17 42.5t42 17.5h2q25 0 43.5 -17.5t18.5 -42.5v-1667q0 -26 -17.5 -43.5t-42.5 -17.5q-26 0 -43.5 17.5t-17.5 43.5z" />
<glyph unicode="}" horiz-adv-x="653" d="M-2 57q0 23 15.5 40t37.5 22q4 0 12 5.5t24 27.5t30 55q73 167 73 559q0 396 -73 563q-14 33 -30 55t-24 27.5t-12 5.5q-22 5 -37.5 22t-15.5 40q0 24 16.5 40.5t40.5 16.5q10 0 22 -3t34 -13t47 -36.5t47 -66.5q93 -178 102 -590h96q26 0 43 -18t17 -43 q0 -22 -17.5 -39.5t-42.5 -17.5h-96q-9 -412 -102 -590q-22 -40 -47 -66.5t-47 -36.5t-34 -13t-22 -3q-24 0 -40.5 16.5t-16.5 40.5z" />
<glyph unicode="~" />
<glyph unicode="&#xa3;" horiz-adv-x="1005" d="M-59 59q0 24 15.5 41.5t39.5 20.5q26 0 55 51q64 111 64 365q0 24 16.5 40.5t40.5 16.5q26 0 43.5 -16t17.5 -41q0 -278 -75 -416h723q24 0 40.5 -18.5t16.5 -43.5q0 -24 -16.5 -41.5t-40.5 -17.5h-881q-26 0 -42.5 17.5t-16.5 41.5zM117 715v299v16q-5 92 10 180 q21 140 106 228q102 108 297 108q111 0 187 -33q75 -30 125 -90q106 -119 96 -327q-2 -24 -18 -40t-39 -16q-26 0 -43 18t-17 42v8q2 11 1.5 32t-4 58t-19.5 78t-43 72q-76 82 -226 82q-139 0 -213 -74q-91 -95 -84 -320v-22v-240h474q24 0 41.5 -17.5t17.5 -41.5 q0 -25 -18 -42.5t-41 -17.5h-531q-26 0 -42.5 17.5t-16.5 42.5z" />
<glyph unicode="&#xa9;" horiz-adv-x="845" d="M0 1198q0 68 29 133q23 64 71 103q43 49 105 73q58 27 131 27q75 0 133 -27q64 -26 102 -73q48 -39 74 -103q27 -61 27 -133q0 -76 -27 -129q-21 -56 -74 -106q-41 -50 -102 -72q-62 -29 -133 -29q-69 0 -131 29q-60 20 -105 72q-53 49 -71 106q-29 57 -29 129zM90 1198 q0 -101 72.5 -173.5t173.5 -72.5q102 0 174 72t72 174q0 103 -71.5 174.5t-174.5 71.5q-102 0 -174 -72t-72 -174zM137 1198q0 83 58 141t141 58q54 0 101 -27.5t75 -73.5q9 -19 3 -37t-23 -26q-15 -9 -34 -4t-30 20q-12 26 -37.5 42t-54.5 16q-46 0 -77.5 -31.5 t-31.5 -77.5q0 -44 31.5 -75t77.5 -31q66 0 98 59q6 15 24.5 21t35.5 -3q17 -7 22.5 -25.5t-2.5 -33.5q-27 -56 -72 -78q-47 -33 -106 -33q-83 0 -141 58t-58 141z" />
<glyph unicode="&#xad;" horiz-adv-x="798" d="M0 614q0 22 15 38t36 16h510q21 0 36 -16t15 -38t-14.5 -36.5t-36.5 -14.5h-510q-22 0 -36.5 14.5t-14.5 36.5z" />
<glyph unicode="&#x152;" horiz-adv-x="2414" />
<glyph unicode="&#x153;" horiz-adv-x="2414" />
<glyph unicode="&#x178;" horiz-adv-x="1196" />
<glyph unicode="&#x2c6;" horiz-adv-x="573" d="M7.5 1240q-2.5 23 12.5 42l195 234q19 22 45 22t45 -22l193 -234q15 -19 12.5 -42t-21.5 -40q-12 -12 -36 -12q-31 0 -47 22l-146 179l-147 -179q-15 -20 -40 -22.5t-44 12.5q-19 17 -21.5 40z" />
<glyph unicode="&#x2dc;" />
<glyph unicode="&#x2000;" horiz-adv-x="869" />
<glyph unicode="&#x2001;" horiz-adv-x="1739" />
<glyph unicode="&#x2002;" horiz-adv-x="869" />
<glyph unicode="&#x2003;" horiz-adv-x="1739" />
<glyph unicode="&#x2004;" horiz-adv-x="579" />
<glyph unicode="&#x2005;" horiz-adv-x="434" />
<glyph unicode="&#x2006;" horiz-adv-x="289" />
<glyph unicode="&#x2007;" horiz-adv-x="289" />
<glyph unicode="&#x2008;" horiz-adv-x="217" />
<glyph unicode="&#x2009;" horiz-adv-x="347" />
<glyph unicode="&#x200a;" horiz-adv-x="96" />
<glyph unicode="&#x2010;" horiz-adv-x="798" d="M0 614q0 22 15 38t36 16h510q21 0 36 -16t15 -38t-14.5 -36.5t-36.5 -14.5h-510q-22 0 -36.5 14.5t-14.5 36.5z" />
<glyph unicode="&#x2011;" horiz-adv-x="798" d="M0 614q0 22 15 38t36 16h510q21 0 36 -16t15 -38t-14.5 -36.5t-36.5 -14.5h-510q-22 0 -36.5 14.5t-14.5 36.5z" />
<glyph unicode="&#x2012;" horiz-adv-x="798" d="M0 614q0 22 15 38t36 16h510q21 0 36 -16t15 -38t-14.5 -36.5t-36.5 -14.5h-510q-22 0 -36.5 14.5t-14.5 36.5z" />
<glyph unicode="&#x2013;" />
<glyph unicode="&#x2014;" />
<glyph unicode="&#x2018;" />
<glyph unicode="&#x2019;" />
<glyph unicode="&#x201a;" />
<glyph unicode="&#x201c;" />
<glyph unicode="&#x201d;" />
<glyph unicode="&#x201e;" />
<glyph unicode="&#x2022;" />
<glyph unicode="&#x2026;" horiz-adv-x="774" d="M59 61q0 26 18 44t44 18q25 0 43 -18t18 -44t-18 -43.5t-43 -17.5q-26 0 -44 17.5t-18 43.5zM317 61q0 26 18 44t44 18q25 0 43 -18t18 -44t-18 -43.5t-43 -17.5q-26 0 -44 17.5t-18 43.5zM575 61q0 26 18 44t44 18q25 0 43 -18t18 -44t-18 -43.5t-43 -17.5 q-26 0 -44 17.5t-18 43.5z" />
<glyph unicode="&#x202f;" horiz-adv-x="347" />
<glyph unicode="&#x2039;" />
<glyph unicode="&#x203a;" />
<glyph unicode="&#x205f;" horiz-adv-x="434" />
<glyph unicode="&#x20ac;" horiz-adv-x="1423" d="M-74 639q0 26 17 43.5t43 17.5h155v64v65h-155q-26 0 -43 17t-17 41q0 26 17 42.5t43 16.5h164q7 164 61 297q67 144 182 219q139 88 342 88q277 0 434 -157q52 -54 87 -120t47.5 -125t16 -87.5t3.5 -48.5v-2q0 -25 -17 -41.5t-42 -16.5t-41.5 17t-16.5 43q0 45 -18 104 q-25 109 -105 195q-119 119 -348 119q-104 0 -183 -26.5t-129 -69t-84 -107.5t-50 -131t-23 -150h410q25 0 42 -16.5t17 -42.5q0 -23 -17.5 -40.5t-41.5 -17.5h-414v-65v-64h414q25 0 42 -17.5t17 -43.5q0 -23 -17 -40t-42 -17h-410q15 -150 58 -246q107 -238 411 -238 q294 0 412 213q25 47 40 103t17 78.5t2 33.5q0 25 16.5 42.5t41.5 17.5q26 0 42.5 -17.5t16.5 -42.5q0 -18 -2 -45.5t-20.5 -98t-51.5 -128.5q-22 -42 -50 -78.5t-73 -74.5t-98.5 -64t-129.5 -43t-163 -17q-201 0 -340 91q-120 78 -180 219q-54 124 -65 295h-164 q-26 0 -43 16.5t-17 40.5z" />
<glyph unicode="&#x2122;" horiz-adv-x="1382" d="M158 1221q0 11 7 17.5t17 6.5h389q11 0 18 -7t7 -17q0 -9 -7.5 -16t-17.5 -7h-389q-10 0 -17 7t-7 16zM352 653v486q0 10 7 17t16 7q11 0 17.5 -6.5t6.5 -17.5v-486q0 -11 -6.5 -17.5t-17.5 -6.5q-9 0 -16 7t-7 17zM674 651v570q0 18 16 24q16 4 27 -10l211 -348l217 348 q10 13 24 10q19 -6 19 -24v-570q0 -22 -25 -22q-22 0 -22 22v488l-191 -310q-8 -12 -22 -12q-11 0 -19 12l-190 310v-488q0 -22 -23 -22q-22 0 -22 22z" />
<glyph unicode="&#x25fc;" horiz-adv-x="1536" d="M0 0v1536h1536v-1536h-1536z" />
</font>
</defs>
</svg>
